<svg xmlns="http://www.w3.org/2000/svg" xmlns:xlink="http://www.w3.org/1999/xlink" width="1080" zoomAndPan="magnify" viewBox="0 0 810 809.999993" height="1080" preserveAspectRatio="xMidYMid meet" version="1.0"><defs><g/><clipPath id="4d5de25994"><path d="M 405 0 C 181.324219 0 0 181.324219 0 405 C 0 628.675781 181.324219 810 405 810 C 628.675781 810 810 628.675781 810 405 C 810 181.324219 628.675781 0 405 0 Z M 405 0 " clip-rule="nonzero"/></clipPath><clipPath id="3b39cb16a7"><path d="M 0 0 L 810 0 L 810 810 L 0 810 Z M 0 0 " clip-rule="nonzero"/></clipPath><clipPath id="9fd09a604b"><path d="M 405 0 C 181.324219 0 0 181.324219 0 405 C 0 628.675781 181.324219 810 405 810 C 628.675781 810 810 628.675781 810 405 C 810 181.324219 628.675781 0 405 0 Z M 405 0 " clip-rule="nonzero"/></clipPath><clipPath id="0be32bbc00"><rect x="0" width="810" y="0" height="810"/></clipPath><clipPath id="d823016027"><path d="M 0.320312 139 L 463 139 L 463 620 L 0.320312 620 Z M 0.320312 139 " clip-rule="nonzero"/></clipPath><clipPath id="b47cdd77da"><rect x="0" width="464" y="0" height="810"/></clipPath><clipPath id="a22d65f8b8"><rect x="0" width="262" y="0" height="753"/></clipPath></defs><g clip-path="url(#4d5de25994)"><g transform="matrix(1, 0, 0, 1, 0, 0.000000000000039746)"><g clip-path="url(#0be32bbc00)"><g clip-path="url(#3b39cb16a7)"><g clip-path="url(#9fd09a604b)"><rect x="-178.2" width="1166.4" fill="#1d293a" height="1166.39999" y="-178.199998" fill-opacity="1"/></g></g></g></g></g><g transform="matrix(1, 0, 0, 1, 100, 0.000000000000039746)"><g clip-path="url(#b47cdd77da)"><g clip-path="url(#d823016027)"><g fill="#ffffff" fill-opacity="1"><g transform="translate(0.330523, 619.408313)"><g><path d="M 352.5625 0 L 317.921875 -113.703125 L 143.765625 -113.703125 L 109.125 0 L 0 0 L 168.59375 -479.65625 L 292.4375 -479.65625 L 461.6875 0 Z M 293.75 -198.65625 C 261.726562 -301.6875 243.703125 -359.957031 239.671875 -373.46875 C 235.640625 -386.976562 232.753906 -397.648438 231.015625 -405.484375 C 223.816406 -377.609375 203.226562 -308.664062 169.25 -198.65625 Z M 293.75 -198.65625 "/></g></g></g></g></g></g><g transform="matrix(1, 0, 0, 1, 487, 27)"><g clip-path="url(#a22d65f8b8)"><g fill="#2064f2" fill-opacity="1"><g transform="translate(0.69659, 502.17027)"><g><path d="M 167.328125 -23.84375 C 164.785156 -22.570312 160.097656 -21.535156 153.265625 -20.734375 C 146.429688 -19.941406 139.835938 -19.546875 133.484375 -19.546875 C 120.453125 -19.546875 110.597656 -21.691406 103.921875 -25.984375 C 97.253906 -30.273438 93.921875 -39.410156 93.921875 -53.390625 L 93.921875 -105.828125 L 21.9375 -105.828125 C 19.707031 -109.328125 17.875 -113.9375 16.4375 -119.65625 C 15.007812 -125.375 14.296875 -131.097656 14.296875 -136.828125 C 14.296875 -148.265625 16.835938 -156.601562 21.921875 -161.84375 C 27.015625 -167.09375 33.847656 -169.71875 42.421875 -169.71875 L 93.921875 -169.71875 L 93.921875 -249.8125 C 97.097656 -250.757812 101.941406 -251.789062 108.453125 -252.90625 C 114.972656 -254.019531 121.410156 -254.578125 127.765625 -254.578125 C 140.472656 -254.578125 150.242188 -252.351562 157.078125 -247.90625 C 163.910156 -243.457031 167.328125 -234.082031 167.328125 -219.78125 L 167.328125 -169.71875 L 237.890625 -169.71875 C 239.484375 -165.90625 241.148438 -161.21875 242.890625 -155.65625 C 244.640625 -150.09375 245.515625 -144.289062 245.515625 -138.25 C 245.515625 -127.125 242.972656 -118.9375 237.890625 -113.6875 C 232.804688 -108.445312 226.132812 -105.828125 217.875 -105.828125 L 167.328125 -105.828125 Z M 167.328125 -23.84375 "/></g></g></g></g></g></svg>